<?xml version="1.0" standalone="no"?>
<!DOCTYPE svg PUBLIC "-//W3C//DTD SVG 20010904//EN"
 "http://www.w3.org/TR/2001/REC-SVG-20010904/DTD/svg10.dtd">
<svg version="1.0" xmlns="http://www.w3.org/2000/svg"
 width="1120.000000pt" height="1120.000000pt" viewBox="0 0 1120.000000 1120.000000"
 preserveAspectRatio="xMidYMid meet">

<g transform="translate(0.000000,1120.000000) scale(0.100000,-0.100000)"
fill="#000000" stroke="none">
<path d="M3965 8405 c-44 -8 -138 -23 -210 -34 -71 -11 -224 -36 -340 -55
-213 -35 -548 -87 -685 -107 -41 -6 -91 -17 -110 -25 -36 -14 -142 -31 -395
-64 -305 -40 -479 -70 -409 -70 10 0 83 -5 161 -10 78 -6 215 -14 303 -19 88
-5 166 -13 173 -19 6 -6 98 -13 207 -17 107 -3 285 -10 395 -15 110 -6 400
-17 645 -25 739 -25 1416 -55 1805 -80 127 -8 259 -17 295 -19 158 -10 523
-37 620 -46 58 -5 208 -17 334 -25 126 -9 233 -18 236 -20 4 -2 76 -9 161 -15
85 -6 188 -15 229 -20 41 -5 107 -12 145 -15 39 -4 124 -13 190 -22 180 -24
226 -26 238 -14 8 8 2 11 -23 11 -19 0 -53 5 -75 10 -51 13 -170 36 -310 60
-279 48 -364 63 -560 100 -265 51 -409 79 -460 91 -34 7 -163 33 -405 79 -30
6 -113 22 -185 36 -129 25 -284 54 -400 74 -106 19 -628 121 -690 135 -33 8
-118 26 -190 40 -71 14 -221 46 -331 70 -216 48 -237 50 -359 30z"/>
<path d="M5615 7480 c-92 -12 -295 -66 -397 -105 -110 -43 -260 -117 -305
-151 -17 -13 -34 -24 -38 -24 -10 0 -166 -121 -219 -170 -124 -114 -212 -218
-301 -356 -68 -104 -97 -161 -150 -298 -101 -258 -139 -517 -116 -786 25 -290
121 -577 271 -817 236 -376 584 -619 1055 -738 103 -25 384 -56 495 -54 198 4
455 48 645 109 221 71 516 212 658 312 l27 19 0 795 0 794 -650 0 -650 0 0
-325 c0 -179 -1 -328 -2 -332 -2 -5 124 -9 280 -11 l282 -2 -2 -273 -3 -272
-110 -36 c-174 -58 -213 -67 -335 -84 -143 -19 -201 -19 -339 0 -185 26 -365
92 -486 179 -116 84 -252 239 -328 376 -147 267 -172 622 -63 899 127 320 418
554 806 648 59 14 114 18 260 18 191 -1 277 -14 384 -59 21 -9 45 -16 52 -16
39 0 283 -137 367 -207 16 -13 32 -23 36 -23 5 0 41 39 81 88 40 48 103 121
140 162 231 259 231 259 221 277 -12 22 -25 33 -131 109 -110 79 -222 143
-340 194 -52 23 -104 45 -115 51 -57 26 -287 83 -405 99 -142 21 -451 26 -575
10z"/>
<path d="M8456 7439 c-71 -9 -220 -46 -293 -72 -58 -22 -202 -96 -238 -124
-76 -59 -90 -71 -128 -108 -76 -75 -187 -229 -187 -259 0 -8 -4 -16 -8 -18
-13 -4 -51 -121 -67 -203 -17 -85 -19 -320 -4 -418 24 -154 101 -305 216 -424
169 -173 350 -268 798 -418 305 -102 370 -127 448 -172 109 -64 157 -129 164
-225 7 -90 -9 -139 -65 -196 -93 -95 -283 -143 -505 -128 -127 8 -188 21 -332
69 -117 39 -250 121 -382 235 -46 40 -86 72 -91 72 -5 0 -16 -15 -25 -32 -9
-18 -46 -87 -82 -153 -36 -66 -97 -183 -136 -260 -39 -77 -75 -144 -80 -149
-19 -20 -8 -44 34 -72 23 -16 51 -37 61 -46 11 -10 23 -18 27 -18 5 0 25 -12
46 -26 63 -43 292 -149 403 -187 213 -74 401 -107 606 -107 155 0 322 15 373
35 142 53 183 70 260 107 359 171 561 490 561 887 0 228 -58 412 -178 561 -58
72 -205 213 -248 237 -146 82 -296 150 -439 197 -44 15 -89 31 -100 35 -11 5
-72 25 -135 46 -324 103 -451 184 -480 305 -33 139 56 274 215 327 73 24 93
27 230 26 121 0 165 -4 230 -22 133 -36 204 -63 342 -133 94 -47 135 -63 141
-55 4 7 21 45 36 84 15 40 65 146 110 235 92 180 115 237 109 256 -14 39 -241
159 -423 222 -52 18 -104 39 -115 47 -11 7 -34 13 -53 13 -18 0 -31 3 -29 8 3
4 -5 7 -16 8 -12 1 -62 6 -112 12 -103 14 -358 14 -459 1z"/>
<path d="M2070 7359 c-25 -4 -150 -7 -279 -8 -129 -1 -238 -4 -243 -7 -4 -3
-8 -729 -8 -1613 0 -1270 3 -1611 13 -1624 10 -14 52 -17 342 -22 182 -3 700
-7 1153 -8 l823 -2 -1 325 c0 244 -4 326 -13 332 -6 4 -380 8 -829 8 l-818 0
0 330 0 330 723 2 722 3 0 323 0 323 -722 -1 -723 0 0 336 0 337 833 -4 832
-4 3 318 c2 249 0 318 -10 322 -21 7 -1749 11 -1798 4z"/>
<path d="M3586 3922 c-7 -12 9 -18 69 -27 92 -14 373 -67 405 -75 19 -6 85
-17 145 -25 61 -9 117 -18 125 -20 8 -3 69 -14 135 -24 66 -11 170 -29 230
-41 61 -11 148 -27 195 -35 47 -8 177 -31 290 -50 113 -20 234 -40 270 -45 36
-6 115 -19 175 -30 61 -11 189 -34 285 -50 96 -16 200 -34 230 -40 331 -64
559 -107 785 -149 303 -55 348 -64 355 -66 3 -1 23 -5 45 -9 363 -72 393 -75
455 -52 87 33 228 82 380 133 91 31 170 59 175 63 6 4 57 22 115 40 58 18 125
45 150 61 56 35 161 76 313 123 64 20 117 41 117 45 0 5 -51 8 -112 7 -62 0
-376 2 -698 6 -322 4 -855 10 -1185 13 -818 8 -1209 21 -1505 50 -135 14 -315
31 -400 40 -85 8 -193 19 -240 25 -47 5 -177 16 -290 25 -113 8 -227 19 -255
24 -27 5 -86 12 -130 16 -44 3 -129 13 -190 21 -412 57 -431 59 -439 46z"/>
</g>
</svg>
