<svg width="400" height="100" viewBox="0 0 400 100" fill="none" xmlns="http://www.w3.org/2000/svg">
<g clip-path="url(#clip0_1_2)">
<path d="M75 10H25C16.7157 10 10 16.7157 10 25V75C10 83.2843 16.7157 90 25 90H75C83.2843 90 90 83.2843 90 75V25C90 16.7157 83.2843 10 75 10Z" fill="#4361EE"/>
<path d="M41 30H37C35.8954 30 35 30.8954 35 32V68C35 69.1046 35.8954 70 37 70H41C42.1046 70 43 69.1046 43 68V32C43 30.8954 42.1046 30 41 30Z" fill="white"/>
<path d="M56 40H52C50.8954 40 50 40.8954 50 42V68C50 69.1046 50.8954 70 52 70H56C57.1046 70 58 69.1046 58 68V42C58 40.8954 57.1046 40 56 40Z" fill="white"/>
<path d="M71 25H67C65.8954 25 65 25.8954 65 27V68C65 69.1046 65.8954 70 67 70H71C72.1046 70 73 69.1046 73 68V27C73 25.8954 72.1046 25 71 25Z" fill="white"/>
<path d="M113.274 62V29.7881H137.158V35.2373H119.778V42.3784H135.95V47.8057H119.778V56.5728H137.773V62H113.274ZM158.274 50.1567V44.7295H172.292V57.5615C170.93 58.8799 168.953 60.0444 166.36 61.0552C163.782 62.0513 161.167 62.5493 158.516 62.5493C155.146 62.5493 152.209 61.8462 149.705 60.4399C147.2 59.019 145.317 56.9976 144.058 54.3755C142.798 51.7388 142.168 48.875 142.168 45.7842C142.168 42.4297 142.871 39.4487 144.277 36.8413C145.684 34.2339 147.742 32.2344 150.452 30.8428C152.517 29.7734 155.088 29.2388 158.164 29.2388C162.163 29.2388 165.283 30.0811 167.524 31.7656C169.78 33.4355 171.23 35.75 171.875 38.709L165.415 39.9175C164.961 38.3354 164.104 37.0903 162.844 36.1821C161.599 35.2593 160.039 34.7979 158.164 34.7979C155.322 34.7979 153.059 35.6987 151.375 37.5005C149.705 39.3022 148.87 41.9756 148.87 45.5205C148.87 49.3438 149.719 52.2148 151.418 54.1338C153.118 56.0381 155.344 56.9902 158.098 56.9902C159.46 56.9902 160.823 56.7266 162.185 56.1992C163.562 55.6572 164.741 55.0054 165.723 54.2437V50.1567H158.274ZM176.665 51.519L182.993 50.9038C183.374 53.0278 184.143 54.5879 185.3 55.584C186.472 56.5801 188.047 57.0781 190.024 57.0781C192.119 57.0781 193.694 56.6387 194.749 55.7598C195.818 54.8662 196.353 53.8262 196.353 52.6396C196.353 51.8779 196.125 51.2334 195.671 50.7061C195.232 50.1641 194.456 49.6953 193.342 49.2998C192.581 49.0361 190.845 48.5674 188.135 47.8936C184.648 47.0293 182.202 45.9673 180.796 44.7075C178.818 42.9351 177.83 40.7744 177.83 38.2256C177.83 36.585 178.291 35.0542 179.214 33.6333C180.151 32.1978 181.492 31.1064 183.235 30.3594C184.993 29.6123 187.109 29.2388 189.585 29.2388C193.628 29.2388 196.667 30.125 198.704 31.8975C200.754 33.6699 201.831 36.0356 201.934 38.9946L195.43 39.2803C195.151 37.625 194.551 36.4385 193.628 35.7207C192.72 34.9883 191.35 34.6221 189.519 34.6221C187.629 34.6221 186.15 35.0103 185.081 35.7866C184.392 36.2847 184.048 36.9512 184.048 37.7861C184.048 38.5479 184.37 39.1997 185.015 39.7417C185.835 40.4302 187.827 41.1479 190.991 41.895C194.155 42.6421 196.492 43.4185 198 44.2241C199.524 45.0151 200.71 46.1064 201.56 47.498C202.424 48.875 202.856 50.5815 202.856 52.6177C202.856 54.4634 202.344 56.1919 201.318 57.8032C200.293 59.4146 198.843 60.6157 196.968 61.4067C195.093 62.1831 192.756 62.5713 189.958 62.5713C185.886 62.5713 182.759 61.6338 180.576 59.7588C178.394 57.8691 177.09 55.1226 176.665 51.519ZM205.361 38.665H211.931L217.512 55.2324L222.961 38.665H229.355L221.116 61.1211L219.644 65.186C219.102 66.5483 218.582 67.5884 218.083 68.3062C217.6 69.0239 217.036 69.6025 216.392 70.042C215.762 70.4961 214.978 70.8477 214.041 71.0967C213.118 71.3457 212.07 71.4702 210.898 71.4702C209.712 71.4702 208.547 71.3457 207.405 71.0967L206.855 66.2627C207.822 66.4531 208.694 66.5483 209.47 66.5483C210.906 66.5483 211.968 66.1235 212.656 65.2739C213.345 64.439 213.872 63.3696 214.238 62.0659L205.361 38.665ZM231.157 55.3423L237.354 54.3975C237.617 55.5986 238.152 56.5142 238.958 57.144C239.763 57.7593 240.891 58.0669 242.341 58.0669C243.938 58.0669 245.139 57.7739 245.945 57.188C246.487 56.7778 246.758 56.2285 246.758 55.54C246.758 55.0713 246.611 54.6831 246.318 54.3755C246.011 54.0825 245.322 53.8115 244.253 53.5625C239.272 52.4639 236.116 51.4604 234.783 50.5522C232.937 49.2925 232.014 47.542 232.014 45.3008C232.014 43.2793 232.812 41.5801 234.409 40.2031C236.006 38.8262 238.481 38.1377 241.836 38.1377C245.029 38.1377 247.402 38.6577 248.955 39.6978C250.508 40.7378 251.577 42.2759 252.163 44.312L246.34 45.3887C246.091 44.4805 245.615 43.7847 244.912 43.3013C244.224 42.8179 243.235 42.5762 241.946 42.5762C240.32 42.5762 239.155 42.8032 238.452 43.2573C237.983 43.5796 237.749 43.9971 237.749 44.5098C237.749 44.9492 237.954 45.3228 238.364 45.6304C238.921 46.0405 240.84 46.6191 244.121 47.3662C247.417 48.1133 249.717 49.0288 251.021 50.1128C252.31 51.2114 252.954 52.7422 252.954 54.7051C252.954 56.8438 252.061 58.6821 250.273 60.2202C248.486 61.7583 245.842 62.5273 242.341 62.5273C239.163 62.5273 236.643 61.8828 234.783 60.5938C232.937 59.3047 231.729 57.5542 231.157 55.3423ZM269.082 38.665V43.5869H264.863V52.9912C264.863 54.8955 264.9 56.0088 264.973 56.3311C265.061 56.6387 265.244 56.895 265.522 57.1001C265.815 57.3052 266.167 57.4077 266.577 57.4077C267.148 57.4077 267.976 57.21 269.06 56.8145L269.587 61.6045C268.152 62.2197 266.526 62.5273 264.709 62.5273C263.596 62.5273 262.593 62.3442 261.699 61.978C260.806 61.5972 260.146 61.1138 259.722 60.5278C259.312 59.9272 259.026 59.1216 258.865 58.1108C258.733 57.3931 258.667 55.9429 258.667 53.7603V43.5869H255.833V38.665H258.667V34.0288L264.863 30.4253V38.665H269.082ZM286.88 54.5732L293.032 55.606C292.241 57.8618 290.989 59.583 289.275 60.7695C287.576 61.9414 285.444 62.5273 282.881 62.5273C278.823 62.5273 275.82 61.2017 273.872 58.5503C272.334 56.4263 271.565 53.7456 271.565 50.5083C271.565 46.6411 272.576 43.6162 274.597 41.4336C276.619 39.2363 279.175 38.1377 282.266 38.1377C285.737 38.1377 288.477 39.2876 290.483 41.5874C292.49 43.8726 293.45 47.3809 293.362 52.1123H277.893C277.937 53.9434 278.435 55.3716 279.387 56.397C280.339 57.4077 281.526 57.9131 282.947 57.9131C283.914 57.9131 284.727 57.6494 285.386 57.1221C286.045 56.5947 286.543 55.7451 286.88 54.5732ZM287.231 48.333C287.188 46.5459 286.726 45.1909 285.847 44.2681C284.968 43.3306 283.899 42.8618 282.639 42.8618C281.292 42.8618 280.178 43.3525 279.299 44.334C278.42 45.3154 277.988 46.6484 278.003 48.333H287.231ZM297.954 38.665H303.645V41.8511C305.681 39.3755 308.105 38.1377 310.918 38.1377C312.412 38.1377 313.708 38.4453 314.807 39.0605C315.906 39.6758 316.807 40.606 317.51 41.8511C318.535 40.606 319.641 39.6758 320.828 39.0605C322.014 38.4453 323.281 38.1377 324.629 38.1377C326.343 38.1377 327.793 38.4893 328.979 39.1924C330.166 39.8809 331.052 40.8989 331.638 42.2466C332.063 43.2427 332.275 44.854 332.275 47.0806V62H326.101V48.6626C326.101 46.3481 325.889 44.854 325.464 44.1802C324.893 43.3013 324.014 42.8618 322.827 42.8618C321.963 42.8618 321.15 43.1255 320.388 43.6528C319.626 44.1802 319.077 44.9565 318.74 45.9819C318.403 46.9927 318.235 48.5967 318.235 50.7939V62H312.061V49.2119C312.061 46.9414 311.951 45.4766 311.731 44.8174C311.511 44.1582 311.167 43.6675 310.698 43.3452C310.244 43.0229 309.622 42.8618 308.831 42.8618C307.878 42.8618 307.021 43.1182 306.26 43.6309C305.498 44.1436 304.949 44.8833 304.612 45.8501C304.29 46.8169 304.128 48.4209 304.128 50.6621V62H297.954V38.665Z" fill="white"/>
</g>
<defs>
<clipPath id="clip0_1_2">
<rect width="400" height="100" fill="white"/>
</clipPath>
</defs>
</svg>
